<svg width="117" height="118" viewBox="0 0 117 118" fill="none" xmlns="http://www.w3.org/2000/svg">
<path d="M38.5021 78.9354C28.6986 77.0036 28.3605 65.6064 37.8743 56.6238C45.5047 49.4764 56.3705 46.5304 66.2223 49.0418C72.3556 50.5871 76.4605 52.9052 80.0342 56.7204C86.6987 63.9161 88.0026 71.1118 83.3665 75.2651C79.3098 78.9353 74.1907 78.9836 66.8984 75.4099C61.8759 72.947 58.3988 72.2709 55.6944 73.1401C54.7768 73.4299 52.3621 74.7821 50.2855 76.086C48.1608 77.39 45.4564 78.6939 44.1042 78.9354C41.448 79.5149 41.3997 79.5149 38.5021 78.9354ZM48.4021 71.0635C53.6661 68.021 54.97 67.683 59.413 67.9727C62.0208 68.1176 63.4213 68.6006 67.9609 70.9186C72.7419 73.3333 73.7561 73.6714 76.2191 73.6714C78.682 73.6714 79.2133 73.4782 80.4689 72.2709C83.3665 69.325 81.7728 64.399 76.2191 59.1351C71.3414 54.4506 65.8843 52.374 58.6886 52.374C51.686 52.374 46.0359 54.7404 40.289 60.0043C36.9085 63.1917 35.5562 65.6547 35.5079 68.842C35.5079 74.8787 40.2407 75.6997 48.4021 71.0635Z" fill="#3F3F46"/>
<path d="M36.9091 42.3291C35.7547 41.1746 35.5282 38.8496 35.5086 37.9344C35.489 37.0191 35.5859 34.8443 36.9091 33.5397C38.2324 32.2351 41.5936 31.8011 42.9941 34.5538C44.4912 37.4514 43.4287 42.0876 41.0141 43.1983C39.1789 44.0193 38.0635 43.4835 36.9091 42.3291Z" fill="#3F3F46"/>
<path d="M69.4587 38.8033C68.3668 38.2744 66.9189 35.9758 66.9189 33.537C66.9189 31.0982 67.4328 29.6735 68.1065 28.9997C68.7807 28.3259 70.7143 27.5026 72.3563 28.8065C74.9641 30.7866 75.2539 35.9057 72.9358 38.2237C71.6802 39.4794 70.5506 39.3322 69.4587 38.8033Z" fill="#3F3F46"/>
<path d="M49.9968 33.2496C48.0652 32.5252 39.2276 26.0539 37.2475 23.929C34.8329 21.3695 34.5914 20.6934 35.847 20.2104C36.8612 19.8241 39.9037 21.4661 46.0852 25.7642C51.1075 29.2896 51.2041 29.3379 52.4597 28.5652C55.0193 27.0198 55.4056 30.1106 52.8944 32.6218C51.9285 33.5877 51.3007 33.7326 49.9968 33.2496Z" fill="#3F3F46"/>
<path d="M59.7513 25.6193C58.6406 23.2046 59.1718 22.3353 61.0552 23.5427C61.7796 23.9773 62.4557 23.7841 64.7738 22.4802C66.3192 21.5626 69.748 19.9207 72.4042 18.8099C76.5574 17.0231 77.3784 16.8299 77.9579 17.4094C78.296 17.7475 78.4891 18.3753 78.3443 18.8099C78.1511 19.2446 74.7706 21.1763 70.7622 23.2046C62.6489 27.213 60.6689 27.6476 59.7513 25.6193Z" fill="#3F3F46"/>
<path d="M48.5572 116.825C35.7592 114.507 26.1971 109.581 17.3595 100.695C8.47348 91.8092 2.77487 80.9915 0.746547 69.3528C-0.315905 63.2678 -0.171026 53.3194 1.03631 47.3795C5.86563 23.6192 23.6376 6.23357 47.9292 1.59742C54.9802 0.245208 65.2184 0.43838 71.3033 2.03206C95.3534 8.35848 112.111 26.1787 116.168 49.6491C121.48 80.8466 99.7481 111.32 68.2609 116.825C63.2866 117.694 53.2416 117.694 48.5572 116.825ZM70.5307 110.885C80.3825 108.277 88.0611 103.931 95.0154 96.9766C111.194 80.8949 115.105 56.3136 104.722 35.6925C98.8306 23.9089 88.689 15.023 75.6497 10.097C65.5081 6.28187 52.5655 5.99211 42.4237 9.37264C33.8758 12.2219 27.5977 16.0371 21.1263 22.3636C10.5501 32.65 5.28611 44.9649 5.28611 59.5976C5.28611 74.8583 10.7433 87.4628 21.9473 98.1357C29.5294 105.331 37.8841 109.581 48.074 111.513C53.5797 112.527 65.653 112.189 70.5307 110.885Z" fill="#6B7280"/>
</svg>
