<svg width="118" height="118" viewBox="0 0 118 118" fill="none" xmlns="http://www.w3.org/2000/svg">
<path d="M37.5244 73.2345C32.4697 65.8012 40.5075 55.8774 47.0382 52.6615C59.0632 46.7697 75.3864 51.5508 81.0367 62.61C83.7894 68.0188 81.4713 75.4077 76.5454 77.0497C69.4675 79.3543 63.4183 69.5034 56.7934 73.3311C50.8186 76.6136 42.2839 80.2337 37.5244 73.2345ZM54.089 70.0472C62.438 64.3176 66.3642 72.1721 74.3239 72.1721C77.6562 72.1721 79.3464 68.3569 77.4147 64.5417C73.7444 57.2977 63.0716 53.2411 53.6544 55.4626C47.1455 56.9089 40.6634 61.4659 40.6634 68.6949C40.6634 74.3453 49.8179 73.037 54.089 70.0472Z" fill="#3F3F46"/>
<path d="M43.6089 40.2502C40.3972 39.5365 37.5029 36.5192 38.3932 32.9579C38.8762 31.0262 40.663 28.853 42.5947 28.2251C46.1819 27.0593 50.8046 30.4166 50.8046 34.1169C50.8046 38.3185 47.5207 41.1195 43.6089 40.2502Z" fill="#3F3F46"/>
<path d="M69.3984 38.8012C66.5008 37.4006 65.3901 32.7645 67.2252 29.7703C68.8624 27.0658 73.7448 26.1143 76.0146 28.6112C78.9605 31.7503 78.0912 36.1933 76.8839 37.4006C74.9951 39.2894 71.9106 39.9431 69.3984 38.8012Z" fill="#3F3F46"/>
<path d="M84.6586 31.9914C82.6303 28.3211 79.7327 25.0854 77.1248 23.7332C74.9999 22.6708 71.3296 22.381 67.8042 23.1054C65.8725 23.4435 65.6793 22.9122 65.8725 22.1395C66.1139 20.739 69.9291 19.0488 72.7784 19.0488C76.4487 19.0488 79.4912 20.3044 82.4371 23.0088C85.4796 25.8098 87.9908 30.3494 87.9908 33.1504C87.9908 35.8549 86.542 35.4685 84.6586 31.9914Z" fill="#3F3F46"/>
<path d="M28.1079 32.1369C28.1562 26.3417 36.2212 18.7113 42.3545 19.0494C45.8316 19.2425 45.9765 21.7055 42.0164 22.4299C36.2695 24.2168 33.5651 26.5348 31.247 31.7505C30.2013 34.1469 28.1079 35.5086 28.1079 32.1369Z" fill="#3F3F46"/>
<path d="M48.6219 116.825C35.8239 114.507 26.2618 109.581 17.4242 100.695C8.53817 91.8092 2.83957 80.9915 0.811244 69.3528C-0.251208 63.2678 -0.106329 53.3194 1.101 47.3795C5.93033 23.6192 23.7023 6.23357 47.9939 1.59742C55.0449 0.245208 65.2831 0.43838 71.368 2.03206C95.4181 8.35848 112.176 26.1787 116.233 49.6491C121.545 80.8466 99.8128 111.32 68.3256 116.825C63.3513 117.694 53.3063 117.694 48.6219 116.825ZM70.5954 110.885C80.4472 108.277 88.1258 103.931 95.0801 96.9766C111.258 80.8949 115.17 56.3136 104.787 35.6925C98.8953 23.9089 88.7537 15.023 75.7144 10.097C65.5728 6.28187 52.6302 5.99211 42.4884 9.37264C33.9405 12.2219 27.6623 16.0371 21.191 22.3636C10.6148 32.65 5.35081 44.9649 5.35081 59.5976C5.35081 74.8583 10.808 87.4628 22.012 98.1357C29.5941 105.331 37.9488 109.581 48.1387 111.513C53.6444 112.527 65.7177 112.189 70.5954 110.885Z" fill="#6B7280"/>
</svg>
