<svg width="70" height="71" viewBox="0 0 70 71" fill="none" xmlns="http://www.w3.org/2000/svg">
<rect y="0.811279" width="70" height="70" rx="35" fill="#C4B0B2"/>
<path d="M25.7563 31.7738C25.7563 31.363 26.0893 31.03 26.5001 31.03H29.4751C29.8859 31.03 30.2189 31.363 30.2189 31.7738V34.5363C30.2189 34.947 29.8859 35.28 29.4751 35.28H26.5001C26.0893 35.28 25.7563 34.947 25.7563 34.5363V31.7738ZM26.8188 32.0925V34.2175H29.1564V32.0925H26.8188ZM26.5001 36.8738C26.0893 36.8738 25.7563 37.2068 25.7563 37.6175V40.38C25.7563 40.7908 26.0893 41.1238 26.5001 41.1238H29.4751C29.8859 41.1238 30.2189 40.7908 30.2189 40.38V37.6175C30.2189 37.2068 29.8859 36.8738 29.4751 36.8738H26.5001ZM26.8188 40.0613V37.9363H29.1564V40.0613H26.8188ZM25.7563 43.355C25.7563 42.9443 26.0893 42.6113 26.5001 42.6113H29.4751C29.8859 42.6113 30.2189 42.9443 30.2189 43.355V46.1175C30.2189 46.5283 29.8859 46.8613 29.4751 46.8613H26.5001C26.0893 46.8613 25.7563 46.5283 25.7563 46.1175V43.355ZM26.8188 43.6738V45.7988H29.1564V43.6738H26.8188ZM33.5126 31.03C33.1018 31.03 32.7689 31.363 32.7689 31.7738V34.5363C32.7689 34.947 33.1018 35.28 33.5126 35.28H36.4876C36.8984 35.28 37.2314 34.947 37.2314 34.5363V31.7738C37.2314 31.363 36.8984 31.03 36.4876 31.03H33.5126ZM33.8314 34.2175V32.0925H36.1689V34.2175H33.8314ZM32.7689 37.6175C32.7689 37.2068 33.1018 36.8738 33.5126 36.8738H36.4876C36.8984 36.8738 37.2314 37.2068 37.2314 37.6175V40.38C37.2314 40.7908 36.8984 41.1238 36.4876 41.1238H33.5126C33.1018 41.1238 32.7689 40.7908 32.7689 40.38V37.6175ZM33.8314 37.9363V40.0613H36.1689V37.9363H33.8314ZM33.5126 42.6113C33.1018 42.6113 32.7689 42.9443 32.7689 43.355V46.1175C32.7689 46.5283 33.1018 46.8613 33.5126 46.8613H36.4876C36.8984 46.8613 37.2314 46.5283 37.2314 46.1175V43.355C37.2314 42.9443 36.8984 42.6113 36.4876 42.6113H33.5126ZM33.8314 45.7988V43.6738H36.1689V45.7988H33.8314ZM39.7814 31.7738C39.7814 31.363 40.1143 31.03 40.5251 31.03H43.5001C43.9109 31.03 44.2439 31.363 44.2439 31.7738V34.5363C44.2439 34.947 43.9109 35.28 43.5001 35.28H40.5251C40.1143 35.28 39.7814 34.947 39.7814 34.5363V31.7738ZM40.8439 32.0925V34.2175H43.1814V32.0925H40.8439ZM40.5251 42.6113C40.1143 42.6113 39.7814 42.9443 39.7814 43.355V46.1175C39.7814 46.5283 40.1143 46.8613 40.5251 46.8613H43.5001C43.9109 46.8613 44.2439 46.5283 44.2439 46.1175V43.355C44.2439 42.9443 43.9109 42.6113 43.5001 42.6113H40.5251ZM40.8439 45.7988V43.6738H43.1814V45.7988H40.8439ZM40.5251 36.8738C40.1143 36.8738 39.7814 37.2068 39.7814 37.6175V40.38C39.7814 40.7908 40.1143 41.1238 40.5251 41.1238H43.5001C43.9109 41.1238 44.2439 40.7908 44.2439 40.38V37.6175C44.2439 37.2068 43.9109 36.8738 43.5001 36.8738H40.5251Z" fill="white"/>
<path d="M19.0659 26.2488C19.178 22.709 22.0829 19.8738 25.65 19.8738H44.35C47.917 19.8738 50.822 22.709 50.9341 26.2488H50.9375V45.1613C50.9375 48.7995 47.9882 51.7488 44.35 51.7488H25.65C22.0118 51.7488 19.0625 48.7995 19.0625 45.1613V26.2488H19.0659ZM21.1875 28.3738V45.1613C21.1875 47.6259 23.1854 49.6238 25.65 49.6238H44.35C46.8146 49.6238 48.8125 47.6259 48.8125 45.1613V28.3738H21.1875Z" fill="white"/>
</svg>
