<svg width="117" height="117" viewBox="0 0 117 117" fill="none" xmlns="http://www.w3.org/2000/svg">
<path d="M55.0717 71.2464C46.8618 68.9766 38.9417 63.8092 32.4221 56.5652C27.641 51.2047 26.6026 47.1962 27.8342 46.7132C29.0658 46.2302 30.6835 47.5342 34.2089 51.0115C42.5065 59.1953 53.2897 66.6721 65.6963 65.4029C73.0127 64.6544 78.3491 61.4429 84.1443 52.3154C86.8488 48.1137 88.2976 49.6593 87.38 54.6335C86.1727 61.1531 80.0877 67.6727 72.4574 70.6186C68.2075 72.2606 59.7562 72.5503 55.0717 71.2464Z" fill="#3F3F46"/>
<path d="M36.2356 39.5168C32.9999 38.406 31.5511 36.6675 29.9574 34.0113C28.2189 30.9689 29.5727 29.3752 31.8425 31.7899C32.4703 32.4177 34.064 33.4318 35.4162 34.0113C38.6519 35.4119 42.95 35.1704 47.2964 33.3352C51.0634 31.7416 52.3673 31.8381 52.5605 33.6733C52.8019 35.6533 49.7595 38.5026 46.3788 39.5168C43.0466 40.531 39.3746 40.6275 36.2356 39.5168Z" fill="#3F3F46"/>
<path d="M70.5239 38.1307C66.6604 36.6819 64.8272 33.1664 65.6965 31.5485C66.5658 29.9305 67.8455 30.3115 70.2843 31.8328C72.7232 33.354 74.1459 33.4867 76.3191 33.4867C78.4923 33.4867 83.2415 32.3011 85.7363 30.1622C87.4266 28.7132 89.3844 28.6506 89.3602 29.8099C89.3361 30.9692 88.3461 33.3353 85.1587 35.75C81.9713 38.1647 74.3873 39.5795 70.5239 38.1307Z" fill="#3F3F46"/>
<path d="M48.5406 116.348C35.7426 114.03 26.1805 109.104 17.3429 100.218C8.45687 91.3321 2.75827 80.5143 0.729945 68.8756C-0.332507 62.7907 -0.187627 52.8422 1.01971 46.9024C5.84903 23.142 23.621 5.7564 47.9126 1.12025C54.9636 -0.231965 65.2018 -0.0387925 71.2867 1.55489C95.3368 7.88131 112.095 25.7016 116.151 49.1719C121.464 80.3695 99.7315 110.843 68.2443 116.348C63.27 117.217 53.225 117.217 48.5406 116.348ZM70.5141 110.408C80.3659 107.8 88.0445 103.454 94.9988 96.4995C111.177 80.4178 115.089 55.8364 104.706 35.2154C98.814 23.4318 88.6724 14.5458 75.6331 9.61987C65.4915 5.80469 52.5489 5.51493 42.4071 8.89547C33.8592 11.7448 27.581 15.56 21.1097 21.8864C10.5335 32.1729 5.26951 44.4877 5.26951 59.1204C5.26951 74.3811 10.7267 86.9857 21.9307 97.6585C29.5128 104.854 37.8675 109.104 48.0574 111.036C53.5631 112.05 65.6364 111.712 70.5141 110.408Z" fill="#6B7280"/>
</svg>
