<svg width="190" height="190" viewBox="0 0 190 190" fill="none" xmlns="http://www.w3.org/2000/svg">
<path d="M155.71 35.2878C156.518 34.4748 157.631 34.2814 158.696 34.6994C159.709 35.0973 160.312 35.8919 160.312 37.04V39.1964L141.631 57.8784C138.153 61.3563 138.153 66.9957 141.631 70.4739L160.312 89.1557V118.047L171.174 112.617C171.507 112.45 171.846 112.306 172.188 112.185V37.04C172.188 23.6716 156.083 18.0656 147.287 26.9171L122.061 52.3011H68.6975L42.7689 26.8807C33.9824 18.1326 17.8125 23.6184 17.8125 37.04V112.184C18.155 112.306 18.4939 112.45 18.8272 112.617L29.6875 118.046V89.1557L48.3695 70.4739C51.8476 66.9957 51.8476 61.3563 48.3695 57.8784L29.6875 39.1964V37.04C29.6875 35.9142 30.2823 35.1115 31.3265 34.704C32.4239 34.2758 33.572 34.4776 34.3953 35.3009L34.4371 35.3423L63.8477 64.176H127.001L155.71 35.2878ZM160.312 80.7589L145.829 66.2755C144.67 65.1159 144.67 63.2361 145.829 62.0771L160.312 47.5933V80.7589ZM44.1711 66.2755L29.6875 80.7589V47.5933L44.1711 62.0771C45.3304 63.2361 45.3304 65.1159 44.1711 66.2755ZM160.312 137.962V138.828L172.188 144.765V132.024L160.312 137.962ZM142.985 171.051C150.279 171.051 156.969 165.703 159.372 158.272L170.048 163.61C165.755 174.634 155.43 182.926 142.985 182.926H47.0153C34.5197 182.926 23.992 174.846 19.7803 163.697L30.4868 158.344C32.734 165.777 39.4397 171.051 47.0153 171.051H142.985ZM29.6875 138.828L17.8125 144.766V132.024L29.6875 137.961V138.828Z" fill="#878FA2"/>
<path d="M65.3125 84.9805C65.3125 83.9711 65.6397 82.3911 66.5344 81.149C67.32 80.0577 68.6553 79.043 71.25 79.043C73.8447 79.043 75.18 80.0577 75.9656 81.149C76.8603 82.3911 77.1875 83.9711 77.1875 84.9805C77.1875 86.6198 78.5169 87.9492 80.1562 87.9492C81.7956 87.9492 83.125 86.6198 83.125 84.9805C83.125 83.0211 82.5615 80.1479 80.7844 77.6791C78.8981 75.0595 75.7803 73.1055 71.25 73.1055C66.7197 73.1055 63.6019 75.0595 61.7156 77.6791C59.9385 80.1479 59.375 83.0211 59.375 84.9805C59.375 86.6198 60.7044 87.9492 62.3438 87.9492C63.9831 87.9492 65.3125 86.6198 65.3125 84.9805ZM112.812 84.9805C112.812 83.9711 113.14 82.3911 114.034 81.149C114.82 80.0577 116.155 79.043 118.75 79.043C121.345 79.043 122.68 80.0577 123.466 81.149C124.36 82.3911 124.688 83.9711 124.688 84.9805C124.688 86.6198 126.017 87.9492 127.656 87.9492C129.296 87.9492 130.625 86.6198 130.625 84.9805C130.625 83.0211 130.062 80.1479 128.284 77.6791C126.398 75.0595 123.28 73.1055 118.75 73.1055C114.22 73.1055 111.102 75.0595 109.216 77.6791C107.438 80.1479 106.875 83.0211 106.875 84.9805C106.875 86.6198 108.204 87.9492 109.844 87.9492C111.483 87.9492 112.812 86.6198 112.812 84.9805ZM88.8078 87.9492H101.192C103.837 87.9492 105.161 91.1472 103.291 93.0175L97.0995 99.2091C95.9399 100.369 94.0601 100.369 92.9005 99.2091L86.7089 93.0175C84.8386 91.1472 86.1632 87.9492 88.8078 87.9492ZM80.1557 111.699C86.3514 111.699 91.8086 109.591 94.9994 106.391C98.1908 109.591 103.647 111.699 109.843 111.699C115.969 111.699 121.374 109.637 124.579 106.497C123.865 110.797 119.069 132.48 94.9994 132.48C70.93 132.48 66.1343 110.797 65.42 106.497C68.625 109.637 74.0293 111.699 80.1557 111.699ZM12.1891 89.5903C12.9223 88.1238 14.7056 87.5294 16.1721 88.2627L39.9221 100.138C41.3886 100.871 41.983 102.654 41.2497 104.121C40.5165 105.587 38.7332 106.182 37.2667 105.448L13.5167 93.5732C12.0502 92.8399 11.4558 91.0569 12.1891 89.5903ZM12.1891 127.871C12.9223 129.337 14.7056 129.932 16.1721 129.198L39.9221 117.323C41.3886 116.59 41.983 114.807 41.2497 113.34C40.5165 111.874 38.7332 111.279 37.2667 112.013L13.5167 123.888C12.0502 124.621 11.4558 126.404 12.1891 127.871ZM173.829 88.2627C175.296 87.5294 177.079 88.1238 177.812 89.5903C178.545 91.0569 177.951 92.8399 176.484 93.5732L152.734 105.448C151.268 106.182 149.485 105.587 148.752 104.121C148.018 102.654 148.613 100.871 150.079 100.138L173.829 88.2627ZM177.812 127.871C177.079 129.337 175.296 129.932 173.829 129.198L150.079 117.323C148.613 116.59 148.018 114.807 148.752 113.34C149.485 111.874 151.268 111.279 152.734 112.013L176.484 123.888C177.951 124.621 178.545 126.404 177.812 127.871Z" fill="#878FA2"/>
</svg>
