<svg width="190" height="190" viewBox="0 0 190 190" fill="none" xmlns="http://www.w3.org/2000/svg">
<path d="M101.192 116.968H88.8077C86.1625 116.968 84.8384 120.166 86.7082 122.036L92.9004 128.228C94.06 129.387 95.9398 129.387 97.0988 128.228L103.291 122.036C105.161 120.166 103.837 116.968 101.192 116.968ZM62.3436 99.7122C62.3436 95.6129 65.6663 92.2903 69.7655 92.2903C73.8642 92.2903 77.1874 95.6129 77.1874 99.7122V108.618C77.1874 112.717 73.8642 116.04 69.7655 116.04C65.6663 116.04 62.3436 112.717 62.3436 108.618V99.7122ZM112.812 99.7122C112.812 95.6129 116.135 92.2903 120.234 92.2903C124.333 92.2903 127.656 95.6129 127.656 99.7122V108.618C127.656 112.717 124.333 116.04 120.234 116.04C116.135 116.04 112.812 112.717 112.812 108.618V99.7122ZM69.3944 134.223C76.213 140.857 86.2789 142.109 95.0925 134.223C103.071 141.831 114.529 140.996 121.255 134.223C121.301 142.867 116.134 160.154 95.0925 160.154C74.0518 160.154 69.1931 142.867 69.3944 134.223ZM156.416 74.6399V49.364C156.416 45.5757 151.986 43.5176 149.091 45.9605L135.85 57.1324C133.091 59.4607 133.031 63.6917 135.723 66.0976L148.995 77.9601C151.865 80.524 156.416 78.488 156.416 74.6399ZM33.584 49.364V74.6399C33.584 78.488 38.1354 80.524 41.0046 77.9601L54.2773 66.0976C56.9691 63.6917 56.9087 59.4607 54.1496 57.1324L40.9088 45.9605C38.0134 43.5176 33.584 45.5757 33.584 49.364Z" fill="#878FA2"/>
<path d="M142.985 184.063C157.701 184.063 169.454 172.467 171.772 158.471L173.525 159.291C175.01 159.985 176.777 159.344 177.471 157.859C178.166 156.374 177.525 154.607 176.04 153.913L172.188 152.11V126.396L176.04 124.594C177.525 123.899 178.166 122.132 177.471 120.647C176.777 119.162 175.01 118.521 173.525 119.216L172.188 119.841V35.747C172.188 22.3787 156.083 16.7727 147.287 25.6242L125.547 47.5001H64.5341L42.7687 26.1618C33.9823 17.4137 17.8124 22.8994 17.8124 36.321V119.842L16.4727 119.216C14.9875 118.521 13.2204 119.162 12.5257 120.647C11.831 122.132 12.4718 123.899 13.957 124.594L17.8124 126.397V152.109L13.957 153.913C12.4718 154.607 11.831 156.374 12.5257 157.859C13.2204 159.344 14.9875 159.985 16.4727 159.291L18.1402 158.511C20.2468 172.794 32.2589 184.063 47.0152 184.063H142.985ZM158.695 33.4064C159.709 33.8044 160.313 34.5989 160.313 35.747V125.395L150.517 129.977C149.032 130.672 148.391 132.439 149.085 133.924C149.78 135.409 151.547 136.05 153.033 135.355L160.313 131.95V146.556L153.033 143.151C151.547 142.456 149.78 143.097 149.085 144.582C148.391 146.067 149.032 147.834 150.517 148.529L160.313 153.11V153.429C160.313 163.793 152.122 172.188 142.985 172.188H47.0152C37.6927 172.188 29.6874 164.201 29.6874 154.031V153.109L39.4805 148.529C40.9656 147.834 41.6065 146.067 40.9118 144.582C40.2171 143.097 38.45 142.456 36.9648 143.151L29.6874 146.555V131.951L36.9648 135.355C38.45 136.05 40.2171 135.409 40.9118 133.924C41.6065 132.439 40.9656 130.672 39.4805 129.977L29.6874 125.396V36.321C29.6874 35.1952 30.2822 34.3926 31.3264 33.9851C32.4238 33.5568 33.5717 33.7589 34.395 34.5822L59.6838 59.3751H130.487L155.71 33.9949C156.518 33.1818 157.631 32.9884 158.695 33.4064Z" fill="#878FA2"/>
</svg>
