<svg width="190" height="190" viewBox="0 0 190 190" fill="none" xmlns="http://www.w3.org/2000/svg">
<path d="M158.696 34.6994C157.631 34.2814 156.518 34.4748 155.71 35.2878L127.001 64.176H63.8477L34.3951 35.3011C33.5718 34.4778 32.4239 34.2758 31.3265 34.704C30.2823 35.1115 29.6875 35.9142 29.6875 37.04V39.1964L48.3695 57.8784C51.8476 61.3563 51.8476 66.9957 48.3695 70.4739L29.6875 89.1557V118.046L18.8272 112.617C18.4939 112.45 18.155 112.306 17.8125 112.184V37.04C17.8125 23.6184 33.9824 18.1326 42.7689 26.8807L68.6975 52.3011H122.061L147.287 26.9171C156.083 18.0656 172.188 23.6716 172.188 37.04V118.155C170.703 118.1 169.297 118.241 168.063 118.455C167.217 116.045 165.761 113.136 163.215 110.937C162.264 110.117 161.295 109.4 160.312 108.78V89.1557L141.631 70.4739C138.153 66.9957 138.153 61.3563 141.631 57.8784L160.312 39.1964V37.04C160.312 35.8919 159.709 35.0973 158.696 34.6994ZM145.829 66.2755L160.312 80.7589V47.5933L145.829 62.0771C144.67 63.2361 144.67 65.1159 145.829 66.2755ZM29.6875 80.7589L44.1711 66.2755C45.3304 65.1159 45.3304 63.2361 44.1711 62.0771L29.6875 47.5933V80.7589ZM156.441 163.933C153.19 168.27 148.245 171.051 142.985 171.051H47.0153C39.4397 171.051 32.734 165.777 30.4868 158.344L19.7803 163.697C23.992 174.846 34.5197 182.926 47.0153 182.926H142.985C156.767 182.926 167.95 172.756 171.218 159.968C167.216 161.565 163.16 162.62 159.666 163.335C158.558 163.562 157.478 163.76 156.441 163.933ZM17.8125 144.766L29.6875 138.828V137.961L17.8125 132.024V144.766Z" fill="#878FA2"/>
<path d="M101.192 83.4961H88.8078C86.1632 83.4961 84.8386 86.694 86.7089 88.5643L92.9005 94.756C94.0601 95.9156 95.9399 95.9156 97.0995 94.756L103.291 88.5643C105.161 86.694 103.837 83.4961 101.192 83.4961ZM89.0625 104.277C89.0625 102.638 90.3919 101.309 92.0312 101.309C94.6806 101.309 97.527 102.276 99.75 103.944C101.993 105.626 103.906 108.278 103.906 111.699C103.906 114.903 102.229 117.431 100.175 119.121C102.229 120.811 103.906 123.34 103.906 126.543C103.906 129.964 101.993 132.616 99.75 134.299C97.527 135.966 94.6806 136.934 92.0312 136.934C90.3919 136.934 89.0625 135.604 89.0625 133.965C89.0625 132.326 90.3919 130.996 92.0312 130.996C93.3399 130.996 94.9466 130.48 96.1875 129.549C97.4083 128.634 97.9688 127.575 97.9688 126.543C97.9688 125.511 97.4083 124.452 96.1875 123.537C94.9466 122.606 93.3399 122.09 92.0312 122.09C90.3919 122.09 89.0625 120.76 89.0625 119.121C89.0625 117.482 90.3919 116.152 92.0312 116.152C93.3399 116.152 94.9466 115.636 96.1875 114.705C97.4083 113.79 97.9688 112.731 97.9688 111.699C97.9688 110.667 97.4083 109.609 96.1875 108.693C94.9466 107.763 93.3399 107.246 92.0312 107.246C90.3919 107.246 89.0625 105.917 89.0625 104.277ZM65.3125 80.5273C65.3125 79.518 65.6397 77.938 66.5344 76.6959C67.32 75.6046 68.6553 74.5898 71.25 74.5898C73.8447 74.5898 75.18 75.6046 75.9656 76.6959C76.8603 77.938 77.1875 79.518 77.1875 80.5273C77.1875 82.1667 78.5169 83.4961 80.1562 83.4961C81.7956 83.4961 83.125 82.1667 83.125 80.5273C83.125 78.568 82.5615 75.6948 80.7844 73.226C78.8981 70.6064 75.7803 68.6523 71.25 68.6523C66.7197 68.6523 63.6019 70.6064 61.7156 73.226C59.9385 75.6948 59.375 78.568 59.375 80.5273C59.375 82.1667 60.7044 83.4961 62.3438 83.4961C63.9831 83.4961 65.3125 82.1667 65.3125 80.5273ZM112.812 80.5273C112.812 79.518 113.14 77.938 114.034 76.6959C114.82 75.6046 116.155 74.5898 118.75 74.5898C121.345 74.5898 122.68 75.6046 123.466 76.6959C124.36 77.938 124.688 79.518 124.688 80.5273C124.688 82.1667 126.017 83.4961 127.656 83.4961C129.296 83.4961 130.625 82.1667 130.625 80.5273C130.625 78.568 130.062 75.6948 128.284 73.226C126.398 70.6064 123.28 68.6523 118.75 68.6523C114.22 68.6523 111.102 70.6064 109.216 73.226C107.438 75.6948 106.875 78.568 106.875 80.5273C106.875 82.1667 108.204 83.4961 109.844 83.4961C111.483 83.4961 112.812 82.1667 112.812 80.5273ZM16.1721 89.7471C14.7056 89.0138 12.9223 89.6082 12.1891 91.0747C11.4558 92.5413 12.0502 94.3243 13.5167 95.0576L37.2667 106.933C38.7332 107.666 40.5165 107.072 41.2497 105.605C41.983 104.138 41.3886 102.355 39.9221 101.622L16.1721 89.7471ZM16.1721 130.683C14.7056 131.416 12.9223 130.822 12.1891 129.355C11.4558 127.888 12.0502 126.105 13.5167 125.372L37.2667 113.497C38.7332 112.764 40.5165 113.358 41.2497 114.825C41.983 116.291 41.3886 118.074 39.9221 118.808L16.1721 130.683ZM163.623 97.9028C163.623 97.9028 169.957 94.6509 174.802 96.4363C186.725 100.899 185.67 113.27 179.832 119.455C169.336 130.422 144.991 130.996 144.991 130.996C144.991 130.996 133.378 109.061 137.415 94.2679C139.713 85.915 149.649 78.9011 159.338 87.2539C163.25 90.6336 163.623 97.9028 163.623 97.9028Z" fill="#878FA2"/>
</svg>
