<svg width="190" height="190" viewBox="0 0 190 190" fill="none" xmlns="http://www.w3.org/2000/svg">
<path d="M158.696 34.6994C157.631 34.2814 156.518 34.4748 155.71 35.2878L127.001 64.176H63.8477L34.3951 35.3011C33.5718 34.4778 32.4239 34.2758 31.3265 34.704C30.2823 35.1115 29.6875 35.9142 29.6875 37.04V39.1964L48.3695 57.8784C51.8476 61.3563 51.8476 66.9957 48.3695 70.4739L29.6875 89.1557V118.046L18.8272 112.617C18.4939 112.45 18.155 112.306 17.8125 112.184V37.04C17.8125 23.6184 33.9824 18.1326 42.7689 26.8807L68.6975 52.3011H122.061L147.287 26.9171C156.083 18.0656 172.188 23.6716 172.188 37.04V112.185C171.846 112.306 171.507 112.45 171.174 112.617L160.312 118.047V89.1557L141.631 70.4739C138.153 66.9957 138.153 61.3563 141.631 57.8784L160.312 39.1964V37.04C160.312 35.8919 159.709 35.0973 158.696 34.6994ZM145.829 66.2755L160.312 80.7589V47.5933L145.829 62.0771C144.67 63.2361 144.67 65.1159 145.829 66.2755ZM29.6875 80.7589L44.1711 66.2755C45.3304 65.1159 45.3304 63.2361 44.1711 62.0771L29.6875 47.5933V80.7589ZM29.6875 138.828V137.961L17.8125 132.024V144.766L29.6875 138.828ZM30.4868 158.344L19.7803 163.697C23.992 174.846 34.5197 182.926 47.0153 182.926H142.985C155.43 182.926 165.755 174.634 170.048 163.61L159.372 158.272C156.969 165.703 150.279 171.051 142.985 171.051H47.0153C39.4397 171.051 32.734 165.777 30.4868 158.344ZM172.188 132.024V144.765L160.312 138.828V137.962L172.188 132.024Z" fill="#878FA2"/>
<path d="M101.192 96.8561H88.8078C86.1632 96.8561 84.8386 100.054 86.7089 101.924L92.9005 108.116C94.0601 109.276 95.9399 109.276 97.0995 108.116L103.291 101.924C105.161 100.054 103.837 96.8561 101.192 96.8561ZM133.594 108.731C135.234 108.731 136.563 110.06 136.563 111.7C136.563 121.013 132.362 127.769 126.914 132.127C121.563 136.408 114.972 138.419 109.844 138.419C108.205 138.419 106.876 137.089 106.876 135.45C106.876 133.81 108.205 132.481 109.844 132.481C113.623 132.481 118.907 130.93 123.205 127.491C127.406 124.131 130.626 119.012 130.626 111.7C130.626 110.06 131.955 108.731 133.594 108.731ZM12.1891 98.4972C12.9223 97.0306 14.7056 96.4363 16.1721 97.1696L39.9221 109.045C41.3886 109.778 41.983 111.561 41.2497 113.027C40.5165 114.494 38.7332 115.088 37.2667 114.355L13.5167 102.48C12.0502 101.747 11.4558 99.9638 12.1891 98.4972ZM12.1891 136.777C12.9223 138.244 14.7056 138.838 16.1721 138.105L39.9221 126.23C41.3886 125.497 41.983 123.714 41.2497 122.247C40.5165 120.781 38.7332 120.186 37.2667 120.92L13.5167 132.795C12.0502 133.528 11.4558 135.311 12.1891 136.777ZM173.829 97.1696C175.296 96.4363 177.079 97.0306 177.812 98.4972C178.545 99.9638 177.951 101.747 176.484 102.48L152.734 114.355C151.268 115.088 149.485 114.494 148.752 113.027C148.018 111.561 148.613 109.778 150.079 109.045L173.829 97.1696ZM177.812 136.777C177.079 138.244 175.296 138.838 173.829 138.105L150.079 126.23C148.613 125.497 148.018 123.714 148.752 122.247C149.485 120.781 151.268 120.186 152.734 120.92L176.484 132.795C177.951 133.528 178.545 135.311 177.812 136.777ZM59.0615 68.8097C58.3283 67.3431 56.545 66.7488 55.0785 67.4821C53.612 68.2154 53.0176 69.9984 53.7508 71.4649C54.9125 73.7883 57.2444 77.0967 60.61 79.8552C60.8736 80.0714 61.145 80.2845 61.4228 80.4947C60.1683 81.583 59.3749 83.1897 59.3749 84.9811V90.9186C59.3749 94.1979 62.0332 96.8561 65.3125 96.8561C68.5918 96.8561 71.25 94.1979 71.25 90.9186V84.9811C71.25 84.9063 71.2488 84.832 71.2458 84.7578C72.2024 84.9027 73.1933 84.9811 74.2188 84.9811C75.8581 84.9811 77.1875 83.6517 77.1875 82.0123C77.1875 80.3724 75.8581 79.0436 74.2188 79.0436C70.335 79.0436 67.0201 77.4321 64.3744 75.2632C61.7031 73.074 59.8791 70.4443 59.0615 68.8097ZM118.75 84.9811C118.75 84.9063 118.751 84.832 118.754 84.7578C117.798 84.9027 116.806 84.9811 115.781 84.9811C114.141 84.9811 112.812 83.6517 112.812 82.0123C112.812 80.3724 114.141 79.0436 115.781 79.0436C119.664 79.0436 122.98 77.4321 125.626 75.2632C128.296 73.074 130.121 70.4443 130.938 68.8097C131.672 67.3431 133.455 66.7488 134.921 67.4821C136.388 68.2154 136.982 69.9984 136.249 71.4649C135.087 73.7883 132.755 77.0967 129.39 79.8552C129.126 80.0714 128.855 80.2845 128.577 80.4947C129.832 81.583 130.625 83.1897 130.625 84.9811V90.9186C130.625 94.1979 127.967 96.8561 124.688 96.8561C121.408 96.8561 118.75 94.1979 118.75 90.9186V84.9811Z" fill="#878FA2"/>
</svg>
