<svg width="60" height="60" viewBox="0 0 60 60" fill="none" xmlns="http://www.w3.org/2000/svg">
<rect width="60" height="60" rx="30" fill="#C4B0B2"/>
<path d="M50 19.1309C50.0021 18.4653 49.8721 17.8059 49.6173 17.191C49.3626 16.5761 48.9883 16.0179 48.5161 15.5488L44.449 11.4803C43.4984 10.5323 42.2107 10 40.8683 10C39.5259 10 38.2382 10.5323 37.2876 11.4803L13.388 35.3832C13.1489 35.6381 12.9742 35.9465 12.8784 36.2826L10.0577 47.5954C9.97673 47.9195 9.98105 48.2591 10.0702 48.581C10.1594 48.903 10.3304 49.1964 10.5665 49.4327C10.8027 49.669 11.096 49.8402 11.4179 49.9295C11.7398 50.0188 12.0794 50.0233 12.4035 49.9426L23.7172 47.1205C24.0565 47.0276 24.3636 46.8431 24.6178 46.6121L48.5161 22.7104C48.988 22.2416 49.3621 21.6839 49.6168 21.0694C49.8716 20.455 50.0018 19.7961 50 19.1309ZM34.2773 19.9671L40.0321 25.7222L23.2488 42.5061L17.4939 36.751L34.2773 19.9671ZM15.8061 40.5383L19.4604 44.1926L14.5919 45.4069L15.8061 40.5383ZM45.7806 19.9748L42.7689 22.9866L37.0141 17.2315L40.0244 14.2197C40.2487 13.9969 40.5521 13.8718 40.8683 13.8718C41.1845 13.8718 41.4878 13.9969 41.7122 14.2197L45.7806 18.2896C46.0026 18.5138 46.1272 18.8166 46.1272 19.1322C46.1272 19.4478 46.0026 19.7506 45.7806 19.9748Z" fill="white"/>
</svg>
