<svg width="161" height="119" viewBox="0 0 161 119" fill="none" xmlns="http://www.w3.org/2000/svg">
<path d="M76.2193 71.3183C73.0427 70.683 68.4489 68.6304 64.8325 66.2358C57.6486 61.4465 50.0248 51.2326 47.3857 42.8271C46.5549 40.1881 46.5549 39.9437 47.3368 39.2107C48.8774 38.3969 50.1436 39.2107 51.4421 41.7519C53.739 46.248 56.8667 50.6951 60.4831 54.5069C66.9828 61.3976 72.945 64.2321 80.5199 64.1344C85.7979 64.0855 88.9256 62.766 92.9818 59.003C97.82 54.4581 100.801 48.887 103.391 39.6994C104.245 36.6694 105.346 35.6432 106.617 36.6694C108.376 38.1355 106.665 49.6688 103.782 56.1685C98.7974 67.2621 87.4106 73.5175 76.2193 71.3183Z" fill="#3F3F46"/>
<path d="M151.821 67.605C147.863 66.5299 143.513 64.4773 143.22 63.4999C142.829 62.2293 143.415 61.1053 144.735 60.7632C145.908 60.4699 151.186 61.9849 154.313 63.5488C156.317 64.575 157.148 66.4321 156.171 67.6539C155.437 68.5335 155.242 68.5335 151.821 67.605Z" fill="#3F3F46"/>
<path d="M1.30044 66.9695C0.371904 65.259 1.39818 64.1839 5.55215 62.6201C7.60469 61.7893 9.90159 61.0073 10.6346 60.8119C13.0782 60.1765 14.8375 61.496 14.2022 63.4997C13.8112 64.7215 7.60469 67.4093 4.47701 67.7514C2.13123 67.9958 1.78914 67.898 1.30044 66.9695Z" fill="#3F3F46"/>
<path d="M9.60792 44.1955C4.96526 43.1693 2.03304 41.5565 1.83756 39.9438C1.64208 38.1356 3.10819 37.4026 6.23587 37.7935C8.77712 38.1356 14.6416 40.1882 15.7656 41.0678C17.2317 42.3385 15.8633 44.9775 13.8108 44.8797C13.2243 44.8797 11.3184 44.5376 9.60792 44.1955Z" fill="#3F3F46"/>
<path d="M141.754 44.1472C140.63 42.9743 141.021 41.4593 142.731 40.4819C144.833 39.2601 154.216 36.6212 156.513 36.6212C157.539 36.6212 158.858 36.9144 159.347 37.3053C160.129 37.8918 160.178 38.185 159.738 39.2113C159.054 40.6285 153.385 42.9743 147.667 44.196C143.073 45.1246 142.731 45.1246 141.754 44.1472Z" fill="#3F3F46"/>
<path d="M64.7594 36.8166C62.5603 34.7471 61.4597 27.5313 64.8806 24.6479C66.5422 23.2307 68.5459 23.133 70.0609 24.2081C73.7262 26.7494 72.823 34.4878 71.3569 36.4426C69.8908 38.3974 66.9586 38.8861 64.7594 36.8166Z" fill="#3F3F46"/>
<path d="M86.5304 34.2755C83.8425 33.7379 81.8877 30.4148 81.8877 26.3585C81.8877 21.1294 85.3805 19.8419 87.8987 20.2009C90.4165 20.5599 92.127 23.1256 92.127 27.4018C92.127 31.6779 89.5115 34.9108 86.5304 34.2755Z" fill="#3F3F46"/>
<path d="M21.4344 26.5538C19.2841 25.4787 10.4386 17.073 9.31457 14.9716C8.53265 13.5054 8.48378 13.1145 9.02135 12.4792C10.6341 10.5244 13.9084 12.528 19.9194 19.0278C24.8064 24.4035 25.1974 25.0877 23.9268 26.3583C23.0471 27.238 22.9005 27.238 21.4344 26.5538Z" fill="#3F3F46"/>
<path d="M132.956 25.8694C132.565 24.5988 133.2 23.6214 137.452 19.2231C141.362 15.1668 143.463 13.8473 144.929 14.6293C147.08 15.8021 145.467 18.6366 139.896 23.4259C135.595 27.0912 133.591 27.7754 132.956 25.8694Z" fill="#3F3F46"/>
<path d="M68.6588 118.038C55.7082 115.692 46.0317 110.707 37.0884 101.715C28.0963 92.723 22.3296 81.776 20.2771 69.9983C19.2019 63.8406 19.3485 53.7733 20.5703 47.7625C25.4573 23.7183 43.4416 6.12502 68.0235 1.43349C75.1586 0.0651221 85.5191 0.260602 91.6767 1.87332C116.014 8.27531 132.972 26.3084 137.077 50.0592C142.453 81.6294 120.461 112.467 88.5979 118.038C83.5643 118.917 73.3992 118.917 68.6588 118.038ZM90.8948 112.027C100.864 109.388 108.635 104.989 115.672 97.9521C132.044 81.6783 136.002 56.8033 125.495 35.9359C119.533 24.0115 109.27 15.0194 96.0751 10.0346C85.8123 6.17389 72.7151 5.88067 62.4523 9.30159C53.8023 12.1849 47.4489 16.0457 40.9003 22.4477C30.1977 32.8571 24.8709 45.319 24.8709 60.1265C24.8709 75.5695 30.3932 88.3246 41.7311 99.125C49.4037 106.407 57.8585 110.707 68.1701 112.662C73.7413 113.688 85.9589 113.346 90.8948 112.027Z" fill="#6B7280"/>
</svg>
