<svg width="117" height="117" viewBox="0 0 117 117" fill="none" xmlns="http://www.w3.org/2000/svg">
<path d="M48.5735 116.348C35.7756 114.03 26.2135 109.104 17.3758 100.218C8.48983 91.332 2.79123 80.5143 0.762904 68.8756C-0.299548 62.7907 -0.154668 52.8422 1.05266 46.9023C5.88199 23.142 23.6539 5.7564 47.9455 1.12025C54.9965 -0.231965 65.2347 -0.0387924 71.3197 1.55489C95.3698 7.88131 112.128 25.7016 116.184 49.1719C121.496 80.3695 99.7645 110.843 68.2772 116.348C63.303 117.217 53.258 117.217 48.5735 116.348ZM70.547 110.408C80.3988 107.8 88.0775 103.454 95.0317 96.4994C111.21 80.4177 115.122 55.8364 104.739 35.2154C98.8469 23.4318 88.7053 14.5458 75.6661 9.61987C65.5245 5.80469 52.5819 5.51493 42.4401 8.89547C33.8921 11.7448 27.614 15.56 21.1427 21.8864C10.5664 32.1729 5.30247 44.4877 5.30247 59.1204C5.30247 74.3811 10.7596 86.9856 21.9637 97.6585C29.5457 104.854 37.9005 109.104 48.0904 111.036C53.596 112.05 65.6694 111.712 70.547 110.408Z" fill="#6B7280"/>
<path d="M55.556 77.386C50.7267 76.0338 47.1528 73.8606 43.0479 69.7073C40.2469 66.858 38.7015 64.7814 37.5424 62.4633L35.997 59.1794L34.9829 60.1452C31.8438 62.9946 26.6281 63.719 22.5232 61.8355C13.2026 57.634 13.1543 44.2569 22.4266 40.1519C27.2559 37.9787 32.2302 38.9929 36.1902 42.953C38.4117 45.1744 39.7156 49.1826 39.281 52.4666C38.9912 54.5432 39.1361 54.9779 41.3576 58.5999C45.8972 65.9404 49.5676 69.0312 55.6526 70.6249C63.0898 72.5566 69.8025 70.6732 76.6119 64.878C80.572 61.4975 86.174 54.9296 86.6086 53.191C88.2023 46.575 94.4805 41.649 101.29 41.7456C107.568 41.8422 113.073 45.2227 115.585 50.4866C118.337 56.0886 116.381 63.9846 112.542 67.8239C108.703 71.6632 104.978 72.0737 101.531 72.0737C98.0841 72.0737 95.9109 71.2117 94.7219 70.7698C91.3274 69.5088 88.6775 65.4392 87.9608 64.2985C87.2442 63.1583 86.9467 62.6565 86.8018 62.6565C86.6569 62.6565 85.9325 63.6224 85.2081 64.8297C82.0208 69.8039 75.8875 74.6815 70.0923 76.7099C66.3737 78.0621 59.0814 78.4001 55.556 77.386Z" fill="#3F3F46"/>
<path d="M87.3819 42.5182C87.0439 42.3734 86.2229 41.2143 85.5951 39.9587C83.1321 35.0811 78.6409 34.0186 72.2178 36.723C68.3061 38.4133 67.2919 38.3167 67.0987 36.2884C66.7607 32.9562 72.9422 29.0444 77.8199 29.4307C83.0838 29.8654 88.2995 33.4874 89.9898 37.7855C90.7625 39.8621 90.7625 40.2002 90.1347 41.3592C89.4103 42.6148 88.541 43.0012 87.3819 42.5182Z" fill="#3F3F46"/>
<path d="M54.7352 37.6888C53.8659 35.9502 51.741 34.0185 49.6644 32.956C47.2496 31.7487 44.0139 32.1833 39.9573 34.3082C36.1904 36.3365 35.1279 36.24 35.1279 33.9702C35.1279 31.797 37.7841 28.8028 41.0197 27.4023C45.8008 25.2774 50.6302 26.2432 54.8801 30.1067C59.0816 33.8736 60.1923 38.9927 56.8118 38.9927C55.7976 38.9927 55.2664 38.6546 54.7352 37.6888Z" fill="#3F3F46"/>
</svg>
