<svg width="70" height="71" viewBox="0 0 70 71" fill="none" xmlns="http://www.w3.org/2000/svg">
<rect y="0.811157" width="70" height="70" rx="35" fill="#C4B0B2"/>
<path d="M47 30.0354L38 22.4175C37.175 21.7051 36.1069 21.3112 35 21.3112C33.8932 21.3112 32.8251 21.7051 32.0001 22.4175L23.0001 30.0354C22.5237 30.4468 22.1435 30.9515 21.8848 31.5159C21.6262 32.0803 21.4951 32.6914 21.5001 33.3085V45.9664C21.5001 47.1187 21.9742 48.2238 22.8182 49.0386C23.6621 49.8534 24.8066 50.3112 26.0001 50.3112H44C45.1934 50.3112 46.338 49.8534 47.1819 49.0386C48.0259 48.2238 48.5 47.1187 48.5 45.9664V33.294C48.5029 32.6793 48.3707 32.071 48.1122 31.5093C47.8536 30.9476 47.4745 30.4452 47 30.0354ZM38 47.4146H32.0001V40.1733C32.0001 39.7892 32.1581 39.4208 32.4394 39.1492C32.7207 38.8776 33.1022 38.725 33.5001 38.725H36.5C36.8979 38.725 37.2794 38.8776 37.5607 39.1492C37.842 39.4208 38 39.7892 38 40.1733V47.4146ZM45.5 45.9664C45.5 46.3505 45.3419 46.7188 45.0606 46.9904C44.7793 47.262 44.3978 47.4146 44 47.4146H41V40.1733C41 39.021 40.5259 37.9159 39.682 37.101C38.8381 36.2862 37.6935 35.8285 36.5 35.8285H33.5001C32.3066 35.8285 31.162 36.2862 30.3181 37.101C29.4742 37.9159 29.0001 39.021 29.0001 40.1733V47.4146H26.0001C25.6023 47.4146 25.2208 47.262 24.9395 46.9904C24.6582 46.7188 24.5001 46.3505 24.5001 45.9664V33.294C24.5004 33.0884 24.546 32.8852 24.6339 32.6979C24.7219 32.5106 24.8501 32.3435 25.0101 32.2078L34.0101 24.6044C34.2838 24.3722 34.6357 24.2442 35 24.2442C35.3644 24.2442 35.7163 24.3722 35.99 24.6044L44.99 32.2078C45.15 32.3435 45.2782 32.5106 45.3661 32.6979C45.4541 32.8852 45.4997 33.0884 45.5 33.294V45.9664Z" fill="white"/>
</svg>
