<svg width="70" height="71" viewBox="0 0 70 71" fill="none" xmlns="http://www.w3.org/2000/svg">
<rect y="0.811279" width="70" height="70" rx="35" fill="#C4B0B2"/>
<path d="M21.0615 46.6107C20.8735 46.6739 20.6999 46.7739 20.551 46.9049C20.4021 47.0359 20.2809 47.1954 20.1943 47.3738L18.46 50.8021C18.2507 51.1854 18.2022 51.6362 18.3253 52.0552C18.4483 52.4743 18.7328 52.8273 19.1161 53.0366C19.4994 53.2459 19.9502 53.2943 20.3692 53.1712C20.7883 53.0482 21.1413 52.7637 21.3506 52.3804L22.397 50.646L23.2237 51.4207C23.5801 51.7851 24.0054 52.0749 24.4748 52.2734C24.9443 52.4719 25.4485 52.5751 25.9582 52.577H26.6809C27.5069 52.5754 28.2986 52.2466 28.8826 51.6626C29.4667 51.0785 29.7955 50.2868 29.797 49.4609V45.2232C29.794 44.6986 29.6244 44.1886 29.3127 43.7667C29.0009 43.3448 28.5632 43.0329 28.0626 42.876C28.5234 42.5714 28.8758 42.1285 29.0692 41.611C29.2626 41.0936 29.2871 40.5281 29.139 39.9959C28.991 39.4637 28.6781 38.9921 28.2453 38.6488C27.8125 38.3056 27.282 38.1083 26.7301 38.0853C26.1781 38.0624 25.6331 38.2149 25.1733 38.5211C24.7135 38.8272 24.3625 39.2712 24.1708 39.7893C23.979 40.3074 23.9564 40.8729 24.1062 41.4046C24.256 41.9364 24.5704 42.407 25.0043 42.7488H20.8881C20.5061 42.746 20.1374 42.8892 19.8576 43.1493C19.5778 43.4093 19.4079 43.7665 19.3828 44.1477C19.3577 44.5289 19.4792 44.9052 19.7225 45.1997C19.9658 45.4943 20.3124 45.6847 20.6915 45.732L23.5301 46.154L23.796 47.4837L22.2062 46.6916C22.0303 46.6029 21.8385 46.5501 21.642 46.5362C21.4455 46.5223 21.2482 46.5476 21.0615 46.6107ZM26.6173 39.2801C26.9032 39.2801 27.1826 39.3648 27.4203 39.5237C27.6579 39.6825 27.8432 39.9082 27.9526 40.1723C28.062 40.4364 28.0906 40.727 28.0348 41.0074C27.9791 41.2877 27.8414 41.5452 27.6393 41.7474C27.4372 41.9495 27.1796 42.0872 26.8993 42.1429C26.6189 42.1987 26.3283 42.1701 26.0642 42.0607C25.8001 41.9513 25.5744 41.766 25.4156 41.5284C25.2567 41.2907 25.172 41.0112 25.172 40.7254C25.172 40.3421 25.3243 39.9744 25.5953 39.7034C25.8664 39.4323 26.234 39.2801 26.6173 39.2801ZM25.172 48.4144L24.5939 45.5238C24.5703 45.4077 24.5117 45.3016 24.4258 45.2199C24.34 45.1382 24.2312 45.0849 24.114 45.0671L20.8592 44.5873C20.7738 44.58 20.6943 44.5409 20.6365 44.4777C20.5786 44.4145 20.5467 44.3318 20.547 44.2462C20.5485 44.1562 20.5849 44.0703 20.6485 44.0066C20.7122 43.943 20.7981 43.9066 20.8881 43.9051H27.3226C27.6722 43.9051 28.0075 44.0439 28.2547 44.2911C28.5019 44.5383 28.6407 44.8736 28.6407 45.2232V49.4609C28.6407 49.9806 28.4342 50.4791 28.0667 50.8467C27.6992 51.2142 27.2007 51.4207 26.6809 51.4207H25.9582C25.598 51.4246 25.2407 51.3566 24.9071 51.2206C24.5735 51.0846 24.2705 50.8834 24.0157 50.6287L23.0329 49.6459C22.9276 49.54 22.7996 49.4596 22.6585 49.4106C22.5175 49.3617 22.3671 49.3455 22.2189 49.3633C22.0707 49.3812 21.9285 49.4325 21.803 49.5136C21.6776 49.5946 21.5723 49.7031 21.4951 49.8309L20.3389 51.7676C20.2995 51.8323 20.2455 51.8869 20.1813 51.9271C20.117 51.9672 20.0443 51.9918 19.9689 51.9988C19.8876 51.9996 19.8076 51.9792 19.7367 51.9396C19.6657 51.9001 19.6063 51.8428 19.5642 51.7734C19.5225 51.7024 19.5005 51.6215 19.5005 51.5392C19.5005 51.4569 19.5225 51.3761 19.5642 51.3051L21.2985 47.8768C21.3398 47.7962 21.41 47.7343 21.4951 47.7034H21.605C21.6384 47.7042 21.6715 47.71 21.7032 47.7207L24.351 49.0446C24.4483 49.0937 24.5574 49.1143 24.6658 49.104C24.7742 49.0938 24.8775 49.0532 24.9639 48.9868C25.0484 48.9202 25.1126 48.8314 25.1494 48.7302C25.1862 48.6291 25.194 48.5198 25.172 48.4144ZM45.9845 18.4676C44.7802 18.4714 43.6018 18.8172 42.5863 19.4646C41.5708 20.1119 40.76 21.0344 40.2482 22.1245C39.7365 23.2147 39.5448 24.4277 39.6954 25.6225C39.8461 26.8174 40.333 27.9449 41.0993 28.8738L31.1209 38.8696L31.9418 39.6905L41.9376 29.7121C42.7231 30.3667 43.6548 30.8223 44.6538 31.0402C45.6528 31.2581 46.6896 31.2319 47.6763 30.9638C48.663 30.6958 49.5705 30.1937 50.3219 29.5003C51.0733 28.8069 51.6464 27.9425 51.9927 26.9804C52.3389 26.0183 52.4481 24.987 52.3109 23.9737C52.1737 22.9605 51.7943 21.9953 51.2047 21.1599C50.6151 20.3245 49.8328 19.6436 48.924 19.175C48.0153 18.7063 47.007 18.4636 45.9845 18.4676ZM45.9845 30.0301C44.9554 30.0301 43.9494 29.7249 43.0938 29.1532C42.2381 28.5815 41.5712 27.7688 41.1774 26.8181C40.7836 25.8674 40.6806 24.8212 40.8813 23.8119C41.0821 22.8026 41.5776 21.8755 42.3053 21.1478C43.033 20.4201 43.9601 19.9246 44.9694 19.7238C45.9787 19.523 47.0249 19.6261 47.9756 20.0199C48.9264 20.4137 49.739 21.0806 50.3107 21.9363C50.8825 22.7919 51.1876 23.7979 51.1876 24.827C51.1876 26.2069 50.6394 27.5303 49.6636 28.5061C48.6879 29.4819 47.3644 30.0301 45.9845 30.0301Z" fill="white"/>
<path d="M44.2499 24.2488H45.4062C45.4062 23.7121 45.193 23.1975 44.8135 22.818C44.4341 22.4385 43.9194 22.2254 43.3828 22.2254C42.8461 22.2254 42.3314 22.4385 41.952 22.818C41.5725 23.1975 41.3593 23.7121 41.3593 24.2488H42.5156C42.5156 24.0188 42.6069 23.7982 42.7696 23.6356C42.9322 23.473 43.1528 23.3816 43.3828 23.3816C43.6127 23.3816 43.8333 23.473 43.9959 23.6356C44.1586 23.7982 44.2499 24.0188 44.2499 24.2488ZM46.5624 24.2488H47.7187C47.7187 24.0188 47.8101 23.7982 47.9727 23.6356C48.1353 23.473 48.3559 23.3816 48.5859 23.3816C48.8159 23.3816 49.0364 23.473 49.1991 23.6356C49.3617 23.7982 49.4531 24.0188 49.4531 24.2488H50.6093C50.6093 23.7121 50.3961 23.1975 50.0167 22.818C49.6372 22.4385 49.1225 22.2254 48.5859 22.2254C48.0492 22.2254 47.5346 22.4385 47.1551 22.818C46.7756 23.1975 46.5624 23.7121 46.5624 24.2488ZM48.5859 25.405H43.3828C43.2294 25.405 43.0824 25.466 42.974 25.5744C42.8655 25.6828 42.8046 25.8298 42.8046 25.9832C42.8868 26.7692 43.2573 27.4969 43.8445 28.0259C44.4317 28.5549 45.194 28.8476 45.9843 28.8476C46.7746 28.8476 47.537 28.5549 48.1241 28.0259C48.7113 27.4969 49.0818 26.7692 49.164 25.9832C49.164 25.8298 49.1031 25.6828 48.9947 25.5744C48.8863 25.466 48.7392 25.405 48.5859 25.405ZM45.9843 27.7175C45.5883 27.7315 45.1968 27.6295 44.8579 27.4241C44.5189 27.2187 44.2474 26.9188 44.0765 26.5613H47.8921C47.7212 26.9188 47.4497 27.2187 47.1108 27.4241C46.7719 27.6295 46.3804 27.7315 45.9843 27.7175ZM30.8663 31.0649L28.681 36.7594L29.7563 37.1757L32.0688 31.1863H32.1093C33.7418 31.1847 35.3112 30.5553 36.4924 29.4285C37.6737 28.3018 38.3764 26.7639 38.455 25.1333C38.5337 23.5027 37.9822 21.9043 36.9149 20.669C35.8475 19.4338 34.346 18.6564 32.7213 18.4977C31.0965 18.339 29.4729 18.8112 28.1867 19.8165C26.9005 20.8219 26.0502 22.2833 25.8118 23.8983C25.5735 25.5133 25.9653 27.1582 26.9062 28.4922C27.8471 29.8263 29.265 30.7474 30.8663 31.0649ZM32.1093 19.6238C33.1384 19.6238 34.1444 19.929 35 20.5007C35.8557 21.0724 36.5226 21.885 36.9164 22.8358C37.3102 23.7865 37.4132 24.8327 37.2125 25.842C37.0117 26.8513 36.5161 27.7784 35.7885 28.5061C35.0608 29.2338 34.1337 29.7293 33.1244 29.9301C32.1151 30.1308 31.0689 30.0278 30.1182 29.634C29.1674 29.2402 28.3548 28.5733 27.7831 27.7176C27.2113 26.862 26.9062 25.856 26.9062 24.8269C26.9062 23.447 27.4544 22.1235 28.4302 21.1478C29.4059 20.172 30.7294 19.6238 32.1093 19.6238Z" fill="white"/>
<path d="M29.5078 23.3816C29.7378 23.3816 29.9584 23.473 30.121 23.6356C30.2836 23.7982 30.375 24.0188 30.375 24.2488H31.5312C31.5312 23.7121 31.3181 23.1975 30.9386 22.818C30.5591 22.4385 30.0445 22.2253 29.5078 22.2253C28.9712 22.2253 28.4565 22.4385 28.077 22.818C27.6976 23.1975 27.4844 23.7121 27.4844 24.2488H28.6406C28.6406 24.0188 28.732 23.7982 28.8946 23.6356C29.0572 23.473 29.2778 23.3816 29.5078 23.3816ZM34.7109 23.3816C34.9409 23.3816 35.1615 23.473 35.3241 23.6356C35.4868 23.7982 35.5781 24.0188 35.5781 24.2488H36.7344C36.7344 23.7121 36.5212 23.1975 36.1417 22.818C35.7623 22.4385 35.2476 22.2253 34.7109 22.2253C34.1743 22.2253 33.6596 22.4385 33.2802 22.818C32.9007 23.1975 32.6875 23.7121 32.6875 24.2488H33.8438C33.8438 24.0188 33.9351 23.7982 34.0977 23.6356C34.2604 23.473 34.4809 23.3816 34.7109 23.3816ZM28.9297 25.9832C28.9701 26.7874 29.3273 27.5429 29.9231 28.0845C30.5189 28.6262 31.305 28.9099 32.1094 28.8738C32.9138 28.9099 33.6998 28.6262 34.2956 28.0845C34.8915 27.5429 35.2486 26.7874 35.2891 25.9832C35.2891 25.8298 35.2282 25.6828 35.1197 25.5744C35.0113 25.4659 34.8643 25.405 34.7109 25.405H29.5078C29.3545 25.405 29.2074 25.4659 29.099 25.5744C28.9906 25.6828 28.9297 25.8298 28.9297 25.9832ZM34.0172 26.5613C33.8356 26.9104 33.5616 27.2029 33.2252 27.4071C32.8888 27.6112 32.5029 27.7192 32.1094 27.7192C31.7159 27.7192 31.3299 27.6112 30.9935 27.4071C30.6571 27.2029 30.3832 26.9104 30.2016 26.5613H34.0172ZM45.9844 32.3425C44.9623 32.3438 43.9556 32.5914 43.0495 33.0644C42.1435 33.5373 41.3648 34.2217 40.7794 35.0595C40.194 35.8974 39.8192 36.8639 39.6866 37.8774C39.5541 38.8908 39.6678 39.9213 40.0181 40.8814L31.8434 45.1249L32.3753 46.1539L40.5153 41.9278C41.0807 42.8883 41.8885 43.6833 42.8579 44.2333C43.8273 44.7832 44.9242 45.0687 46.0387 45.0611C47.1532 45.0536 48.2461 44.7533 49.208 44.1903C50.1699 43.6273 50.9669 42.8215 51.5193 41.8534C52.0716 40.8854 52.3598 39.7892 52.355 38.6747C52.3503 37.5602 52.0527 36.4665 51.4921 35.5033C50.9315 34.54 50.1277 33.741 49.161 33.1862C48.1944 32.6315 47.0989 32.3405 45.9844 32.3425ZM45.9844 43.905C44.9553 43.905 43.9493 43.5999 43.0937 43.0281C42.238 42.4564 41.5711 41.6438 41.1773 40.6931C40.7835 39.7423 40.6805 38.6961 40.8812 37.6868C41.082 36.6775 41.5775 35.7504 42.3052 35.0227C43.0329 34.2951 43.96 33.7995 44.9693 33.5988C45.9786 33.398 47.0248 33.501 47.9755 33.8948C48.9263 34.2887 49.7389 34.9556 50.3106 35.8112C50.8823 36.6669 51.1875 37.6728 51.1875 38.7019C51.1875 40.0819 50.6393 41.4053 49.6635 42.3811C48.6878 43.3568 47.3643 43.905 45.9844 43.905Z" fill="white"/>
<path d="M44.25 38.1237H45.4063C45.4063 37.5871 45.1931 37.0724 44.8136 36.6929C44.4342 36.3135 43.9195 36.1003 43.3828 36.1003C42.8462 36.1003 42.3315 36.3135 41.9521 36.6929C41.5726 37.0724 41.3594 37.5871 41.3594 38.1237H42.5156C42.5156 37.8937 42.607 37.6732 42.7696 37.5105C42.9323 37.3479 43.1528 37.2565 43.3828 37.2565C43.6128 37.2565 43.8334 37.3479 43.996 37.5105C44.1587 37.6732 44.25 37.8937 44.25 38.1237ZM46.5625 38.1237H47.7188C47.7188 37.8937 47.8101 37.6732 47.9728 37.5105C48.1354 37.3479 48.356 37.2565 48.586 37.2565C48.816 37.2565 49.0365 37.3479 49.1992 37.5105C49.3618 37.6732 49.4531 37.8937 49.4531 38.1237H50.6094C50.6094 37.5871 50.3962 37.0724 50.0167 36.6929C49.6373 36.3135 49.1226 36.1003 48.586 36.1003C48.0493 36.1003 47.5346 36.3135 47.1552 36.6929C46.7757 37.0724 46.5625 37.5871 46.5625 38.1237ZM48.586 39.28H43.3828C43.2295 39.28 43.0825 39.3409 42.974 39.4493C42.8656 39.5577 42.8047 39.7048 42.8047 39.8581C42.8869 40.6441 43.2574 41.3719 43.8446 41.9009C44.4318 42.4298 45.1941 42.7226 45.9844 42.7226C46.7747 42.7226 47.537 42.4298 48.1242 41.9009C48.7114 41.3719 49.0819 40.6441 49.1641 39.8581C49.1641 39.7048 49.1032 39.5577 48.9948 39.4493C48.8863 39.3409 48.7393 39.28 48.586 39.28ZM45.9844 41.5925C45.5884 41.6064 45.1968 41.5045 44.8579 41.2991C44.519 41.0937 44.2475 40.7938 44.0766 40.4362H47.8922C47.7213 40.7938 47.4498 41.0937 47.1109 41.2991C46.772 41.5045 46.3804 41.6064 45.9844 41.5925ZM17.8875 35.6956L20.2 37.43L20.8938 36.505L19.4658 35.4354L20.1538 35.2331C20.2534 35.2014 20.3426 35.1433 20.4119 35.0649C20.4811 34.9865 20.5278 34.8908 20.5469 34.7879C20.5703 34.6921 20.5688 34.5918 20.5425 34.4967C20.5162 34.4015 20.4659 34.3147 20.3966 34.2445L18.6622 32.5101L17.8239 33.3311L18.8992 34.4006L18.0494 34.6839C17.9493 34.7174 17.8603 34.7777 17.792 34.8582C17.7237 34.9387 17.6788 35.0364 17.6621 35.1406C17.6454 35.2449 17.6575 35.3517 17.6973 35.4496C17.737 35.5474 17.8028 35.6325 17.8875 35.6956ZM21.9344 35.6956L24.2469 37.43L24.9406 36.505L23.5127 35.4354L24.2006 35.2042C24.2935 35.1724 24.3766 35.1175 24.4424 35.0447C24.5081 34.9719 24.5543 34.8835 24.5764 34.7879C24.5998 34.6921 24.5983 34.5918 24.572 34.4967C24.5457 34.4015 24.4955 34.3147 24.4261 34.2445L22.6917 32.5101L21.8708 33.3311L22.9461 34.4006L22.0963 34.6839C21.9962 34.7174 21.9071 34.7777 21.8389 34.8582C21.7706 34.9387 21.7256 35.0364 21.7089 35.1406C21.6922 35.2449 21.7044 35.3517 21.7442 35.4496C21.7839 35.5474 21.8497 35.6325 21.9344 35.6956Z" fill="white"/>
</svg>
