<svg width="40" height="40" viewBox="0 0 40 40" fill="none" xmlns="http://www.w3.org/2000/svg">
<path d="M40 9.13091C40.0021 8.46531 39.8721 7.80592 39.6173 7.191C39.3626 6.57609 38.9883 6.01789 38.5161 5.54882L34.449 1.48025C33.4984 0.532319 32.2107 0 30.8683 0C29.5259 0 28.2382 0.532319 27.2876 1.48025L3.38805 25.3832C3.14893 25.6381 2.97418 25.9465 2.87837 26.2826L0.057696 37.5954C-0.0232653 37.9195 -0.0189541 38.2591 0.0702101 38.581C0.159374 38.903 0.330355 39.1964 0.566519 39.4327C0.802682 39.669 1.09599 39.8402 1.4179 39.9295C1.73981 40.0188 2.07936 40.0233 2.40352 39.9426L13.7172 37.1205C14.0565 37.0276 14.3636 36.8431 14.6178 36.6121L38.5161 12.7104C38.988 12.2416 39.3621 11.6839 39.6168 11.0694C39.8716 10.455 40.0018 9.79606 40 9.13091ZM24.2773 9.96707L30.0321 15.7222L13.2488 32.5061L7.49389 26.751L24.2773 9.96707ZM5.80613 30.5383L9.46036 34.1926L4.59193 35.4069L5.80613 30.5383ZM35.7806 9.97481L32.7689 12.9866L27.0141 7.23147L30.0244 4.21973C30.2487 3.99688 30.5521 3.87182 30.8683 3.87182C31.1845 3.87182 31.4878 3.99688 31.7122 4.21973L35.7806 8.28958C36.0026 8.5138 36.1272 8.81662 36.1272 9.1322C36.1272 9.44777 36.0026 9.75059 35.7806 9.97481Z" fill="#878FA2"/>
</svg>
