<svg width="118" height="118" viewBox="0 0 118 118" fill="none" xmlns="http://www.w3.org/2000/svg">
<path d="M29.4125 84.2806C26.8529 81.9625 25.8388 78.582 26.1285 73.5112C26.37 69.7926 26.6115 69.0682 30.5232 58.83C33.4691 51.2479 34.2901 49.606 35.4009 49.3645C36.415 49.2196 36.415 48.6401 35.1594 55.9324C34.2901 60.9066 34.9662 64.5286 38.057 70.7585C39.9887 74.6219 40.52 76.2639 40.52 78.0507C40.52 82.5903 37.4775 86.0192 33.4208 86.0192C31.7306 86.0192 31.0062 85.6811 29.4125 84.2806ZM35.5457 81.9142C36.9462 80.9484 37.7189 78.4371 37.1877 76.6019C36.9945 75.781 35.8838 73.4146 34.773 71.2897C33.6623 69.1648 32.6481 66.6052 32.5033 65.5911C32.3101 64.6252 32.0203 63.7076 31.8271 63.5627C31.2476 63.1764 29.7022 70.7584 29.7505 74.1873C29.7988 80.5137 32.455 84.0874 35.5457 81.9142Z" fill="#3F3F46"/>
<path d="M42.3054 69.2613C40.8083 67.8125 43.6096 61.402 47.8111 57.2005C51.3849 53.6268 54.7171 51.2604 59.643 49.4735C61.9886 48.6227 63.917 47.8074 69.5432 47.7833C75.1693 47.7591 78.1635 48.9423 83.0653 51.4053C87.9671 53.8682 93.4484 60.0981 92.2406 61.0997C91.0332 62.1013 90.3093 60.4332 88.7634 59.2645C84.7556 56.2346 77.2213 52.9864 70.2188 52.9864C60.3669 52.9864 53.7507 56.4635 46.7484 65.3495C43.4644 69.5027 42.9815 69.9374 42.3054 69.2613Z" fill="#3F3F46"/>
<path d="M45.0109 39.6577C42.1616 38.4987 41.0025 32.8001 42.9343 29.661C45.5421 25.3146 50.6611 28.3571 50.6611 34.2972C50.6611 36.5669 50.2269 37.8834 49.261 38.8492C48.2952 39.8151 46.7977 40.3821 45.0109 39.6577Z" fill="#3F3F46"/>
<path d="M69.4954 38.5466C65.4392 35.9512 66.4529 28.4408 67.7568 27.2459C69.0612 26.0511 70.5095 25.8454 72.3447 27.3425C76.9809 31.2543 74.5179 41.0095 69.4954 38.5466Z" fill="#3F3F46"/>
<path d="M29.4596 29.8062C28.6386 28.7921 29.0733 28.2608 31.9709 26.7637C35.3031 25.1218 36.3656 24.2042 38.4905 21.4515C40.5188 18.6988 40.9051 18.409 41.871 18.747C42.9818 19.1817 42.3056 22.9003 40.7603 25.1701C38.4905 28.454 30.9084 31.5448 29.4596 29.8062Z" fill="#3F3F46"/>
<path d="M79.009 26.1353C76.8841 25.5075 74.6143 23.5275 72.9723 20.968C71.0406 17.8289 70.8957 16.501 71.6684 16.1869C72.4416 15.8729 73.4553 16.9113 75.9182 19.4709C78.6226 22.2719 79.9749 23.3343 82.0515 24.0587C85.3354 25.3144 85.5769 26.3285 82.5344 26.4734C81.3271 26.5217 79.7334 26.3768 79.009 26.1353Z" fill="#3F3F46"/>
<path d="M49.4922 116.825C36.6943 114.507 27.1322 109.581 18.2945 100.695C9.40854 91.8092 3.70993 80.9915 1.68161 69.3528C0.619154 63.2678 0.764033 53.3194 1.97137 47.3795C6.80069 23.6192 24.5727 6.23357 48.8642 1.59742C55.9152 0.245208 66.1534 0.43838 72.2384 2.03206C96.2885 8.35848 113.046 26.1787 117.103 49.6491C122.415 80.8466 100.683 111.32 69.1959 116.825C64.2217 117.694 54.1767 117.694 49.4922 116.825ZM71.4657 110.885C81.3176 108.277 88.9962 103.931 95.9504 96.9766C112.129 80.8949 116.04 56.3136 105.657 35.6925C99.7656 23.9089 89.624 15.023 76.5848 10.097C66.4432 6.28187 53.5006 5.99211 43.3588 9.37264C34.8108 12.2219 28.5327 16.0371 22.0614 22.3636C11.4851 32.65 6.22117 44.9649 6.22117 59.5976C6.22117 74.8583 11.6783 87.4628 22.8824 98.1357C30.4644 105.331 38.8192 109.581 49.0091 111.513C54.5147 112.527 66.5881 112.189 71.4657 110.885Z" fill="#6B7280"/>
</svg>
