<svg width="60" height="60" viewBox="0 0 60 60" fill="none" xmlns="http://www.w3.org/2000/svg">
<path d="M30 60C46.5685 60 60 46.5685 60 30C60 13.4315 46.5685 0 30 0C13.4315 0 0 13.4315 0 30C0 46.5685 13.4315 60 30 60Z" fill="#BDD1D2"/>
<path d="M60 30C60 46.5683 46.5683 60 30 60C30 60 48.3333 54.485 48.3333 30C48.3333 5.515 30 0 30 0C46.5683 0 60 13.4317 60 30Z" fill="#878FA2"/>
<path d="M18.3333 21.6667C20.1743 21.6667 21.6667 20.1743 21.6667 18.3333C21.6667 16.4924 20.1743 15 18.3333 15C16.4924 15 15 16.4924 15 18.3333C15 20.1743 16.4924 21.6667 18.3333 21.6667Z" fill="#878FA2"/>
<path d="M29.9999 38.3333C33.6818 38.3333 36.6666 35.3486 36.6666 31.6667C36.6666 27.9848 33.6818 25 29.9999 25C26.318 25 23.3333 27.9848 23.3333 31.6667C23.3333 35.3486 26.318 38.3333 29.9999 38.3333Z" fill="#878FA2"/>
<path d="M43.3333 49.9999C45.1743 49.9999 46.6667 48.5075 46.6667 46.6666C46.6667 44.8256 45.1743 43.3333 43.3333 43.3333C41.4924 43.3333 40 44.8256 40 46.6666C40 48.5075 41.4924 49.9999 43.3333 49.9999Z" fill="#B0BEC5"/>
<path d="M46.6667 25C49.4282 25 51.6667 22.7614 51.6667 20C51.6667 17.2386 49.4282 15 46.6667 15C43.9053 15 41.6667 17.2386 41.6667 20C41.6667 22.7614 43.9053 25 46.6667 25Z" fill="#B0BEC5"/>
</svg>
