<svg width="70" height="71" viewBox="0 0 70 71" fill="none" xmlns="http://www.w3.org/2000/svg">
<rect y="0.811279" width="70" height="70" rx="35" fill="#C4B0B2"/>
<path d="M34.0231 27.511L32.3065 25.489C32.0027 25.1312 32.0352 24.5851 32.3791 24.269C32.7228 23.953 33.2478 23.9868 33.5514 24.3446L34.6093 25.5905L36.8332 22.6544C37.1171 22.2796 37.6394 22.2151 37.9997 22.5106C38.36 22.806 38.4219 23.3495 38.1379 23.7243L35.2979 27.4737C35.1455 27.675 34.9151 27.7997 34.6688 27.8027C34.2339 27.808 34.0231 27.511 34.0231 27.511ZM47.3476 24.3251H40.3594C39.9007 24.3251 39.5288 24.7121 39.5288 25.1894C39.5288 25.6668 39.9007 26.0537 40.3594 26.0537H47.3476C47.8063 26.0537 48.1782 25.6668 48.1782 25.1894C48.1782 24.7121 47.8063 24.3251 47.3476 24.3251ZM35.2979 34.7338L38.1379 30.9844C38.4218 30.6096 38.36 30.0661 37.9997 29.7707C37.6394 29.4751 37.1172 29.5396 36.8332 29.9145L34.6093 32.8506L33.5514 31.6046C33.2478 31.2469 32.7228 31.2131 32.3791 31.5291C32.0353 31.8451 32.0028 32.3913 32.3065 32.749L34.0231 34.7711C34.181 34.9571 34.4078 35.0631 34.6456 35.0631C34.6456 35.0631 35.0426 35.0711 35.2979 34.7338ZM47.3476 31.4599H40.3594C39.9007 31.4599 39.5288 31.8468 39.5288 32.3242C39.5288 32.8015 39.9007 33.1884 40.3594 33.1884H47.3476C47.8063 33.1884 48.1782 32.8015 48.1782 32.3242C48.1782 31.8468 47.8063 31.4599 47.3476 31.4599ZM35.2979 41.821L38.1379 38.0716C38.4218 37.6968 38.36 37.1533 37.9997 36.8579C37.6394 36.5623 37.1172 36.6268 36.8332 37.0017L34.6093 39.9378L33.5514 38.6918C33.2478 38.3341 32.7228 38.3003 32.3791 38.6163C32.0353 38.9323 32.0028 39.4785 32.3065 39.8362L34.0231 41.8583C34.181 42.0443 34.4078 42.1503 34.6456 42.1503C34.6456 42.1503 35.0267 42.1793 35.2979 41.821ZM47.3476 38.5471H40.3594C39.9007 38.5471 39.5288 38.934 39.5288 39.4114C39.5288 39.8887 39.9007 40.2757 40.3594 40.2757H47.3476C47.8063 40.2757 48.1782 39.8887 48.1782 39.4114C48.1782 38.934 47.8063 38.5471 47.3476 38.5471ZM35.2979 48.9082L38.1379 45.1588C38.4218 44.784 38.36 44.2405 37.9997 43.9451C37.6394 43.6495 37.1172 43.714 36.8332 44.0889L34.6093 47.025L33.5514 45.779C33.2478 45.4213 32.7228 45.3875 32.3791 45.7035C32.0353 46.0195 32.0028 46.5657 32.3065 46.9235L34.0231 48.9455C34.181 49.1315 34.4078 49.2375 34.6456 49.2375C34.6456 49.2375 35.0292 49.2631 35.2979 48.9082ZM47.3476 45.6343H40.3594C39.9007 45.6343 39.5288 46.0212 39.5288 46.4986C39.5288 46.9759 39.9007 47.3629 40.3594 47.3629H47.3476C47.8063 47.3629 48.1782 46.9759 48.1782 46.4986C48.1782 46.0212 47.8063 45.6343 47.3476 45.6343ZM51.5 21.4227V50.1998C51.5 51.9155 50.1587 53.3113 48.5099 53.3113H25.0492C23.4004 53.3113 22.0591 51.9155 22.0591 50.1998V47.7506H20.6595C19.4688 47.7506 18.5 46.7425 18.5 45.5034V44.5783C18.5 43.3392 19.4688 42.3311 20.6595 42.3311H22.0592V38.521H20.6595C19.4688 38.521 18.5 37.5129 18.5 36.2738V35.3488C18.5 34.1097 19.4688 33.1016 20.6595 33.1016H22.0592V29.2914H20.6595C19.4688 29.2914 18.5 28.2833 18.5 27.0443V26.1191C18.5 24.8801 19.4688 23.872 20.6595 23.872H22.0593V21.4227C22.0593 19.707 23.4006 18.3113 25.0494 18.3113H42.3759C42.8347 18.3113 43.2065 18.6982 43.2065 19.1756C43.2065 19.6529 42.8347 20.0399 42.3759 20.0399H29.9171V44.5805C29.9171 45.0579 29.5452 45.4448 29.0865 45.4448C28.6278 45.4448 28.2559 45.0579 28.2559 44.5805V20.0399H25.0494C24.3167 20.0399 23.7204 20.6603 23.7204 21.4227V23.872H25.0901C26.2808 23.872 27.2496 24.88 27.2496 26.1191V27.0444C27.2496 27.6431 27.0246 28.2069 26.6161 28.6322C26.2075 29.0573 25.6655 29.2915 25.0902 29.2915H23.7204V33.1017H25.0903C26.281 33.1017 27.2498 34.1098 27.2498 35.3488V36.2739C27.2498 37.5129 26.281 38.5211 25.0903 38.5211H23.7204V42.3312H25.0903C26.281 42.3312 27.2498 43.3393 27.2498 44.5784V45.5035C27.2498 46.7426 26.281 47.7507 25.0903 47.7507H23.7204V50.1999C23.7204 50.9624 24.3167 51.5828 25.0494 51.5828H28.256V48.1673C28.256 47.69 28.6278 47.3031 29.0866 47.3031C29.5453 47.3031 29.9172 47.69 29.9172 48.1673V51.5828H48.51C49.2428 51.5828 49.839 50.9624 49.839 50.1999V21.4227C49.839 20.6603 49.2428 20.0399 48.51 20.0399H45.8218C45.3631 20.0399 44.9912 19.6529 44.9912 19.1756C44.9912 18.6982 45.3631 18.3113 45.8218 18.3113H48.5099C50.1587 18.3113 51.5 19.7071 51.5 21.4227ZM25.5885 27.0444V26.1191C25.5885 25.8381 25.3602 25.6006 25.0901 25.6006H20.6595C20.3894 25.6006 20.1612 25.8381 20.1612 26.1191V27.0443C20.1612 27.3253 20.3894 27.5628 20.6595 27.5628H25.0902C25.5627 27.5444 25.5885 27.0444 25.5885 27.0444ZM20.6595 36.7924H25.0902C25.3603 36.7924 25.5885 36.5549 25.5885 36.2738V35.3488C25.5885 35.0677 25.3603 34.8302 25.0902 34.8302H20.6595C20.3894 34.8302 20.1612 35.0677 20.1612 35.3488V36.2738C20.1612 36.555 20.3894 36.7924 20.6595 36.7924ZM20.6595 46.022H25.0902C25.3603 46.022 25.5885 45.7845 25.5885 45.5034V44.5783C25.5885 44.2972 25.3603 44.0597 25.0902 44.0597H20.6595C20.3894 44.0597 20.1612 44.2972 20.1612 44.5783V45.5034C20.1612 45.7846 20.3894 46.022 20.6595 46.022Z" fill="white"/>
</svg>
